<svg data-v-6805eed4="" version="1.0" xmlns="http://www.w3.org/2000/svg" xmlns:xlink="http://www.w3.org/1999/xlink" width="100%" height="100%" viewBox="0 0 340.000000 250.000000" preserveAspectRatio="xMidYMid meet" color-interpolation-filters="sRGB" style="margin: auto;"> <rect data-v-6805eed4="" x="0" y="0" width="100%" height="100%" fill="#FFFFFF" fill-opacity="1" class="background"></rect> <rect data-v-6805eed4="" x="0" y="0" width="100%" height="100%" fill="url(#watermark)" fill-opacity="1" class="watermarklayer"></rect> <g data-v-6805eed4="" class="iconmbgsvg" transform="translate(95,66.75707244873047)"><g fill="#0B4D8F" hollow-target="textNormalTran"><g opacity="0.55"><g><rect fill="#0B4D8F" fill-opacity="0" stroke-width="2" x="0" y="0" width="150" height="116.48585473437343" class="image-rect"></rect> <svg filter="url(#colors4289731111)" x="0" y="0" width="150" height="116.48585473437343" filtersec="colorsf2052415941" class="image-svg-svg primary" style="overflow: visible;"><svg xmlns="http://www.w3.org/2000/svg" xmlns:xlink="http://www.w3.org/1999/xlink" version="1.1" x="0px" y="0px" viewBox="6.120838642120361 16.700000762939453 85.89002227783203 66.69999694824219" xml:space="preserve"><path d="M90.6,62.6c-2.5-0.6-5-1.1-7.4-1.5L91.3,49c0.4-0.6,0.3-1.5-0.3-2c-1.5-1.2-4.2-1.9-7.5-2.3L72.8,29.8  c-0.3-0.4-0.7-0.6-1.2-0.6c-1.2,0-2.7,0.1-4.4,0.2L51,17c-0.3-0.2-0.6-0.3-1-0.3c-10.8,0.6-26.9,6.2-27.6,6.5  c-0.8,0.3-1.2,1.1-0.9,1.9c0.3,0.8,1.1,1.2,1.9,0.9c0,0,1.3-0.5,3.3-1.1v12.5c-1.1,0.3-2.1,0.7-3.1,1c-0.1,0-0.1,0-0.2,0.1  c-3.5,1.2-6.3,2.4-7.9,3.6c-0.7,0.5-0.8,1.4-0.3,2.1s1.4,0.8,2.1,0.3c1.1-0.8,2.9-1.6,5.3-2.5v10.8c-2.2,0.8-4.1,1.6-5.6,2.5  c-0.5,0.3-0.8,0.8-0.8,1.3v12.2c-5.6,2.2-8.9,4.1-9.3,4.3c-0.7,0.4-1,1.3-0.6,2c0.4,0.7,1.3,1,2,0.6C9.7,74.8,40.1,58,79.8,63.6  c-18.9,0.9-46.3,3.3-67.5,16.9c-0.6,0.4-0.8,1.1-0.6,1.8s0.9,1.1,1.6,1c35.1-4.3,58.5-4.3,73.5,0c0.1,0,0.3,0.1,0.4,0.1  c0.7,0,1.3-0.4,1.4-1.1c0.2-0.8-0.2-1.6-1-1.9c-12.9-3.7-31.5-4.3-57.9-1.9C41.5,71.4,82,65.9,90.3,66.2c0.9,0,1.6-0.7,1.7-1.6  C92.1,63.7,91.5,62.8,90.6,62.6z M79.7,44.4C71,44,60.4,45.1,56.1,45.6c-9.5,1.1-21.6,3.2-30.6,6c4.2-6.7,20.9-17.4,45.3-19.4  L79.7,44.4z M30.3,36.3c3.6-5.8,12.1-13.1,19.4-16.6l13.2,10.1C53.4,31,40.4,33.5,30.3,36.3z M19.2,67.5L19.2,67.5  c3.4-6.5,24.7-17.3,49.3-19.9c8.8-0.5,16.2-0.3,19.5,1.1l-8.1,12C54.1,57.1,32.1,62.7,19.2,67.5z"></path></svg></svg> <defs><filter id="colors4289731111"><feColorMatrix type="matrix" values="0 0 0 0 0.84375  0 0 0 0 0.66015625  0 0 0 0 0.24609375  0 0 0 1 0" class="icon-fecolormatrix"></feColorMatrix></filter> <filter id="colorsf2052415941"><feColorMatrix type="matrix" values="0 0 0 0 0.99609375  0 0 0 0 0.99609375  0 0 0 0 0.99609375  0 0 0 1 0" class="icon-fecolormatrix"></feColorMatrix></filter> <filter id="colorsb4758476170"><feColorMatrix type="matrix" values="0 0 0 0 0  0 0 0 0 0  0 0 0 0 0  0 0 0 1 0" class="icon-fecolormatrix"></feColorMatrix></filter></defs></g></g> <g transform="translate(1.6999969482421875,24.304927825927734)"><g data-gra="path-name" fill-rule="" class="tp-name" transform="translate(0,0)"><g transform="scale(1)"><g><path d="M19.6 0L19.6-20.066-0.1-51.824 8.8-51.824 17.3-37.209Q18.9-34.365 20.4-31.6 21.9-28.835 23.6-25.912L23.6-25.912 24-25.912Q25.7-28.835 27.4-31.6 29.1-34.365 30.6-37.209L30.6-37.209 39-51.824 47.7-51.824 28-20.066 28 0 19.6 0ZM52.6 0L52.6-51.824 72.1-51.824Q77.1-51.824 81.25-51.11300000000001 85.4-50.402 88.35-48.901 91.3-47.400000000000006 92.95-44.990500000000004 94.6-42.581 94.6-39.184000000000005L94.6-39.184000000000005Q94.6-35.313 91.8-32.1925 89-29.072 83.2-27.887L83.2-27.887 83.2-27.571Q90.4-26.701999999999998 94.4-23.621 98.4-20.54 98.4-15.168L98.4-15.168Q98.4-11.376000000000001 96.6-8.532000000000002 94.8-5.688000000000001 91.5-3.792 88.2-1.896 83.6-0.948 79 0 73.5 0L73.5 0 52.6 0ZM60.9-29.704000000000004L70.6-29.704000000000004Q79.1-29.704000000000004 82.75-31.995 86.4-34.286 86.4-38.631L86.4-38.631Q86.4-42.897 82.55-44.7535 78.7-46.61 71-46.61L71-46.61 60.9-46.61 60.9-29.704000000000004ZM60.9-5.2139999999999995L72.3-5.2139999999999995Q80.8-5.2139999999999995 85.5-7.702500000000001 90.2-10.191 90.2-15.484000000000002L90.2-15.484000000000002Q90.2-20.303 85.6-22.5545 81-24.806 72.3-24.806L72.3-24.806 60.9-24.806 60.9-5.2139999999999995ZM101.2-6.715L106.2-11.297Q109.7-8.374 114.45-6.5965 119.2-4.819 124.3-4.819L124.3-4.819Q130.8-4.819 134.4-7.149500000000001 138-9.48 138-13.272000000000002L138-13.272000000000002Q138-15.247000000000002 137.15-16.6295 136.3-18.012 134.85-18.9995 133.4-19.987000000000002 131.4-20.777 129.4-21.567 127.1-22.436L127.1-22.436 117.7-25.675Q115.4-26.465 113-27.571 110.6-28.677 108.7-30.256999999999998 106.8-31.837 105.6-34.0095 104.4-36.182 104.4-39.026L104.4-39.026Q104.4-41.949000000000005 105.95-44.477 107.5-47.005 110.25-48.86150000000001 113-50.718 116.75-51.745000000000005 120.5-52.772 125-52.772L125-52.772Q130.9-52.772 135.9-50.9945 140.9-49.217 144.4-46.373000000000005L144.4-46.373000000000005 139.9-42.107Q136.9-44.398 133.25-45.7015 129.6-47.005 125-47.005L125-47.005Q119.5-47.005 116.15-44.990500000000004 112.8-42.976 112.8-39.421L112.8-39.421Q112.8-37.525 113.75-36.221500000000006 114.7-34.918000000000006 116.3-33.9305 117.9-32.943000000000005 119.8-32.1925 121.7-31.442 123.7-30.810000000000002L123.7-30.810000000000002 133-27.650000000000002Q135.8-26.701999999999998 138.3-25.477500000000003 140.8-24.253 142.6-22.6335 144.4-21.014000000000003 145.45-18.841500000000003 146.5-16.669 146.5-13.825000000000001L146.5-13.825000000000001Q146.5-10.744 144.95-8.058 143.4-5.372 140.5-3.3575 137.6-1.343 133.5-0.1975 129.4 0.948 124.2 0.948L124.2 0.948Q117.3 0.948 111.4-1.1059999999999999 105.5-3.16 101.2-6.715L101.2-6.715Z" transform="translate(0.10000000149011612, 52.77199935913086)"></path></g> <!----> <!----> <!----> <!----> <!----> <!----> <!----></g></g> <g data-gra="path-slogan" fill-rule="" class="tp-slogan" fill="#0B4D8F" transform="translate(5,59.720001220703125)"><rect x="0" height="1" y="3.580000400543213" width="26.12000274658203"></rect> <rect height="1" y="3.580000400543213" width="26.12000274658203" x="110.4800033569336"></rect> <g transform="translate(29.12000274658203,0)"><g transform="scale(1)"><path d="M1.08 0L1.08-7.87L3.42-7.87Q4.02-7.87 4.52-7.76Q5.02-7.66 5.37-7.43Q5.72-7.20 5.92-6.83Q6.12-6.47 6.12-5.95L6.12-5.95Q6.12-5.36 5.78-4.89Q5.45-4.42 4.75-4.24L4.75-4.24L4.75-4.19Q5.62-4.06 6.10-3.59Q6.58-3.12 6.58-2.30L6.58-2.30Q6.58-1.73 6.36-1.30Q6.14-0.86 5.75-0.58Q5.35-0.29 4.80-0.14Q4.25 0 3.59 0L3.59 0L1.08 0ZM2.08-4.51L3.24-4.51Q4.26-4.51 4.70-4.86Q5.14-5.21 5.14-5.87L5.14-5.87Q5.14-6.52 4.67-6.80Q4.21-7.08 3.29-7.08L3.29-7.08L2.08-7.08L2.08-4.51ZM2.08-0.79L3.44-0.79Q4.46-0.79 5.03-1.17Q5.59-1.55 5.59-2.35L5.59-2.35Q5.59-3.08 5.04-3.43Q4.49-3.77 3.44-3.77L3.44-3.77L2.08-3.77L2.08-0.79ZM9.12-3.20L11.48-3.20L11.11-4.40Q10.90-5.06 10.70-5.72Q10.51-6.37 10.32-7.06L10.32-7.06L10.27-7.06Q10.09-6.37 9.90-5.72Q9.71-5.06 9.49-4.40L9.49-4.40L9.12-3.20ZM12.48 0L11.74-2.40L8.87-2.40L8.11 0L7.09 0L9.76-7.87L10.88-7.87L13.55 0L12.48 0ZM15.77 0L15.77-3.05L13.40-7.87L14.47-7.87L15.49-5.65Q15.68-5.22 15.86-4.80Q16.04-4.38 16.25-3.94L16.25-3.94L16.30-3.94Q16.50-4.38 16.70-4.80Q16.91-5.22 17.09-5.65L17.09-5.65L18.10-7.87L19.14-7.87L16.78-3.05L16.78 0L15.77 0ZM22.18-3.94L22.18-3.94Q22.18-4.88 22.44-5.64Q22.70-6.40 23.17-6.92Q23.64-7.45 24.28-7.73Q24.92-8.02 25.68-8.02L25.68-8.02Q26.40-8.02 26.94-7.72Q27.48-7.43 27.83-7.04L27.83-7.04L27.26-6.41Q26.95-6.74 26.57-6.94Q26.20-7.14 25.69-7.14L25.69-7.14Q25.13-7.14 24.67-6.92Q24.22-6.70 23.89-6.28Q23.57-5.87 23.39-5.28Q23.21-4.69 23.21-3.96L23.21-3.96Q23.21-3.22 23.38-2.62Q23.56-2.03 23.87-1.61Q24.18-1.19 24.63-0.96Q25.08-0.73 25.64-0.73L25.64-0.73Q26.22-0.73 26.65-0.96Q27.07-1.19 27.46-1.61L27.46-1.61L28.02-1.00Q27.55-0.46 26.96-0.16Q26.38 0.14 25.62 0.14L25.62 0.14Q24.88 0.14 24.25-0.13Q23.62-0.41 23.15-0.93Q22.69-1.45 22.43-2.21Q22.18-2.98 22.18-3.94ZM30.47-3.20L32.83-3.20L32.46-4.40Q32.24-5.06 32.05-5.72Q31.86-6.37 31.67-7.06L31.67-7.06L31.62-7.06Q31.44-6.37 31.25-5.72Q31.06-5.06 30.84-4.40L30.84-4.40L30.47-3.20ZM33.83 0L33.08-2.40L30.22-2.40L29.46 0L28.44 0L31.10-7.87L32.23-7.87L34.90 0L33.83 0ZM38.80 0.14L38.80 0.14Q38.05 0.14 37.43-0.14Q36.82-0.43 36.37-0.97Q35.93-1.50 35.68-2.26Q35.44-3.02 35.44-3.97L35.44-3.97Q35.44-4.92 35.68-5.67Q35.93-6.42 36.37-6.94Q36.82-7.46 37.43-7.74Q38.05-8.02 38.80-8.02L38.80-8.02Q39.54-8.02 40.16-7.73Q40.78-7.45 41.23-6.93Q41.68-6.41 41.92-5.66Q42.17-4.91 42.17-3.97L42.17-3.97Q42.17-3.02 41.92-2.26Q41.68-1.50 41.23-0.97Q40.78-0.43 40.16-0.14Q39.54 0.14 38.80 0.14ZM38.80-0.73L38.80-0.73Q39.32-0.73 39.75-0.96Q40.18-1.19 40.48-1.61Q40.79-2.04 40.96-2.63Q41.12-3.23 41.12-3.97L41.12-3.97Q41.12-4.70 40.96-5.29Q40.79-5.88 40.48-6.29Q40.18-6.70 39.75-6.92Q39.32-7.14 38.80-7.14L38.80-7.14Q38.27-7.14 37.84-6.92Q37.42-6.70 37.11-6.29Q36.80-5.88 36.64-5.29Q36.47-4.70 36.47-3.97L36.47-3.97Q36.47-3.23 36.64-2.63Q36.80-2.04 37.11-1.61Q37.42-1.19 37.84-0.96Q38.27-0.73 38.80-0.73ZM46.28 0L46.28-7.87L48.62-7.87Q49.22-7.87 49.72-7.76Q50.22-7.66 50.57-7.43Q50.93-7.20 51.13-6.83Q51.32-6.47 51.32-5.95L51.32-5.95Q51.32-5.36 50.99-4.89Q50.65-4.42 49.96-4.24L49.96-4.24L49.96-4.19Q50.82-4.06 51.30-3.59Q51.78-3.12 51.78-2.30L51.78-2.30Q51.78-1.73 51.56-1.30Q51.35-0.86 50.95-0.58Q50.56-0.29 50.00-0.14Q49.45 0 48.79 0L48.79 0L46.28 0ZM47.28-4.51L48.44-4.51Q49.46-4.51 49.90-4.86Q50.34-5.21 50.34-5.87L50.34-5.87Q50.34-6.52 49.88-6.80Q49.42-7.08 48.49-7.08L48.49-7.08L47.28-7.08L47.28-4.51ZM47.28-0.79L48.65-0.79Q49.67-0.79 50.23-1.17Q50.80-1.55 50.80-2.35L50.80-2.35Q50.80-3.08 50.24-3.43Q49.69-3.77 48.65-3.77L48.65-3.77L47.28-3.77L47.28-0.79ZM54.32-3.20L56.69-3.20L56.32-4.40Q56.10-5.06 55.91-5.72Q55.72-6.37 55.52-7.06L55.52-7.06L55.48-7.06Q55.30-6.37 55.10-5.72Q54.91-5.06 54.70-4.40L54.70-4.40L54.32-3.20ZM57.68 0L56.94-2.40L54.07-2.40L53.32 0L52.30 0L54.96-7.87L56.09-7.87L58.75 0L57.68 0ZM60.97 0L60.97-3.05L58.61-7.87L59.68-7.87L60.70-5.65Q60.89-5.22 61.07-4.80Q61.25-4.38 61.45-3.94L61.45-3.94L61.50-3.94Q61.70-4.38 61.91-4.80Q62.11-5.22 62.29-5.65L62.29-5.65L63.30-7.87L64.34-7.87L61.98-3.05L61.98 0L60.97 0ZM66.94 0L69.23-4.07L67.09-7.87L68.20-7.87L69.26-5.86Q69.42-5.58 69.56-5.32Q69.70-5.06 69.88-4.72L69.88-4.72L69.92-4.72Q70.09-5.06 70.22-5.32Q70.34-5.58 70.49-5.86L70.49-5.86L71.53-7.87L72.59-7.87L70.44-4.02L72.73 0L71.63 0L70.48-2.12Q70.32-2.41 70.16-2.72Q70.00-3.02 69.80-3.38L69.80-3.38L69.76-3.38Q69.59-3.02 69.43-2.72Q69.28-2.41 69.13-2.12L69.13-2.12L67.99 0L66.94 0ZM75.01-3.20L77.38-3.20L77.00-4.40Q76.79-5.06 76.60-5.72Q76.40-6.37 76.21-7.06L76.21-7.06L76.16-7.06Q75.98-6.37 75.79-5.72Q75.60-5.06 75.38-4.40L75.38-4.40L75.01-3.20ZM78.37 0L77.63-2.40L74.76-2.40L74.00 0L72.98 0L75.65-7.87L76.78-7.87L79.44 0L78.37 0Z" transform="translate(-1.08, 8.016)"></path></g></g></g></g></g></g><defs v-gra="od"></defs></svg>